<?xml version="1.0" encoding="UTF-8"?>
<svg id="svg6" xmlns="http://www.w3.org/2000/svg" viewBox="0 0 435.13 435.13">
  <defs>
    <style>
      .cls-1 {
        fill: #000;
      }

      .cls-1, .cls-2 {
        stroke-width: 0px;
      }

      .cls-2 {
        fill: #f7df1e;
      }
    </style>
  </defs>
  <rect id="rect2" class="cls-2" width="435.13" height="435.13" rx="14.75" ry="14.75"/>
  <path id="path4" class="cls-1" d="M292.29,339.94c8.76,14.31,20.17,24.83,40.34,24.83,16.94,0,27.77-8.47,27.77-20.17,0-14.02-11.12-18.99-29.77-27.14l-10.22-4.39c-29.51-12.57-49.11-28.32-49.11-61.61,0-30.67,23.37-54.01,59.88-54.01,26,0,44.69,9.05,58.16,32.74l-31.84,20.44c-7.01-12.57-14.57-17.52-26.31-17.52s-19.57,7.6-19.57,17.52c0,12.27,7.6,17.23,25.14,24.83l10.22,4.38c34.74,14.9,54.36,30.09,54.36,64.23,0,36.81-28.92,56.98-67.76,56.98s-62.51-18.1-74.51-41.81l33.23-19.3ZM147.85,343.49c6.42,11.4,12.27,21.03,26.31,21.03s21.91-5.26,21.91-25.69v-139.03h40.89v139.59c0,42.34-24.82,61.61-61.06,61.61-32.74,0-51.7-16.94-61.34-37.35l33.28-20.15Z"/>
</svg>