<?xml version="1.0" encoding="UTF-8"?>
<svg id="Layer_1" data-name="Layer 1" xmlns="http://www.w3.org/2000/svg" viewBox="0 0 1241.45 1237.03">
  <defs>
    <style>
      .cls-1 {
        fill: #dd3735;
      }

      .cls-1, .cls-2 {
        stroke-width: 0px;
      }

      .cls-2 {
        fill: #dd3a0a;
      }
    </style>
  </defs>
  <path class="cls-1" d="M231.33,516.72c1.68,1.27,4.62,2.1,1.68,4.6-2.1,2.92-4.62,5.43-6.29,8.78-1.67,2.94-2.93,3.76-5.45,1.68,3.15-5.15,6.5-10.19,10.04-15.08h.02ZM1073.73,955.15c0,1.24.42,2.06.42,3.34.84-1.67.84-2.51,1.27-3.34h-1.69ZM1073.73,958.9v-.41.41ZM988.24,1122.05l-72.94-403.27c-1.24-.4-2.91-1.22-5.86-2.06.84,1.67,1.27,2.92,1.69,4.17,2.07-.41,2.93-.41,3.76-.82,0-.41,0-.83.43-1.27l72.94,403.3-.02-.05ZM912.8,628.01c-.41,1.24-.41,2.5-.41,3.76,0-1.27,0-2.53.44-3.78l-.03.02ZM913.21,636.36q-.41,0-.82-.44v.41q.44.42.86,0l-.04.04ZM912.39,639.69v-2.93c-1.23.41-2.49.41-4.17.84,2.1.8,4.21,1.24,4.21,2.06l-.03.03Z"/>
  <path class="cls-2" d="M1238.85,538.06c-.83-16.32-1.24-32.64-2.93-48.95-2.93-22.18-5.86-44.77-10.89-66.51-3.78-17.99-10.04-35.15-16.34-52.3-7.97-20.08-15.92-40.58-25.99-59.82-16.34-30.96-37.71-58.58-57.41-87.45-13.03-18.41-29.79-33.47-42.36-52.29-7.12-10.87-17.6-20.07-28.08-28.42-16.77-13.41-34.37-25.56-51.97-37.25-13.41-9.21-26.82-17.99-41.09-25.95-11.31-6.3-23.46-11.32-35.19-16.76-13.41-6.27-26.4-13.81-41.49-16.74-3.79-.79-7.13-2.06-10.91-3.33-9.64-3.34-18.86-7.1-28.51-10.04-14.65-4.6-28.91-10.03-44-13.81-14.62-3.77-29.72-6.26-44.82-8.37-16.76-2.46-33.92-3.33-50.71-4.97-10.9-1.27-21.79-2.51-32.27-2.92-15.93-.82-32.27-.82-48.2-1.24-7.96-.43-16.34-1.27-24.3-.84-12.15.41-24.3,1.67-36.47,3.33-11.72,1.27-23.46,3.34-34.76,5.03-13.81,1.67-27.64,2.51-41.47,4.19-13,1.68-26.41,4.19-39.39,6.29-4.62.84-9.23,2.51-13.85,3.33-10.04,2.1-20.51,2.94-30.58,6.29-18,5.46-36.04,11.75-53.64,18.41-16.35,6.7-32.28,13.81-47.77,22.18-15.93,8.76-31.03,19.21-46.11,29.27-14.27,9.62-28.5,19.65-42.36,30.53-13.38,10.47-25.96,22.18-38.13,33.89-6.69,6.67-12.15,14.64-18.44,22.16-10.47,12.14-20.94,23.85-31.01,36.4-8.35,10.48-15.92,21.34-23.89,32.23-14.22,19.21-26.37,39.72-37.68,60.23-4.62,8.37-8.8,16.73-12.99,25.08-6.29,12.54-13,24.69-18.86,37.66-4.21,8.8-7.55,18.41-10.07,28.03-5.9,20.59-11.63,41.23-17.17,61.92C1.73,485,.46,504.24.07,523.07c-.43,16.74,1.24,33.05,2.92,49.78.43,4.19-2.07,9.21,2.93,12.54-1.67,4.6-.42,7.14,2.07,7.94-2.9,4.6,1.28,7.56-.38,11.75-.43.82,1.27,2.49,2.07,3.75,0,1.27-.4,2.93,0,4.19.45,3.77,2.12,7.53,2.12,11.72,0,2.92,2.5,6.27,3.35,9.21.42,1.24,0,3.33-.84,4.17-2.52,2.92-2.1,5.43,1.67,7.11,2.12,5.43,1.27,7.94.86,10.48.83,3.75-.43,5,0,5.84,3.35,6.7,4.62,14.23,5.02,21.75,0,1.68.85,3.37,1.69,5.45.42,0,0,7.94,0,7.94,2.07-1.24,3.78-1.65,5.86-2.49,1.27,5.43,2.52,10.47,4.19,15.08,2.1,3.34,2.1,4.98,1.28,5.4,1.67,7.53,2.5,14.64,5.41,21.75,0-7.94-.8-15.87-2.07-23.42,5.86,2.1,10.9,4.18,14.26,4.18.43-1.27.84-2.92,1.27-3.77-2.51-2.49-4.62-6.25-7.13-8.76.84,3.34,0,4.61,0,5.88-1.67-.86-3.78-1.7-5.86-2.54,1.67-2.06,3.35-4.17,5.86-6.67,0-3.78-2.07-7.14-7.97-6.72,2.52-.82,5.03-2.06,7.97-2.92,4.62-2.49-.42-7.1-.42-12.96.42-7.09-3.78-14.21-5.03-21.75-2.1-11.7-1.67-29.27-2.93-40.99-2.52-2.1-4.62,3.34-5.03,3.76,1.28,10.04,2.52,20.07,3.35,30.12-2.5-8.37-4.19-17.57-6.28-27.62-.43,2.94-.85,4.19-.85,5.88-2.07,2.06-.41,4.6.85,7.52-2.93-1.27-6.29-.82-6.29-.82v11.71c-4.17-4.19-5.41-7.52-7.53-10.48-.83-3.33-1.27-6.67-2.07-10,.8-2.11,0-3.36,0-4.6-.49-3.35-.92-6.7-1.28-10.07.42-.41-.41-6.67-.41-6.67,3.35.4,5.46.8,7.55.8-4.19-5.4-1.27-8.76.43-12.11.85-1.68,3.78-2.06,4.62-3.78,3.35-6.27,8.81-11.27,8.81-19.24,0-3.77,1.28-7.94,1.67-11.72.84-7.11,1.67-14.22,2.07-21.33.86-9.21,0-18.42,2.12-27.2,3.38-14.61,7.56-29.26,12.17-43.91,3.35-10.48,7.13-20.48,11.31-30.96,6.29-16.32,12.17-32.64,20.13-48.1,11.31-22.61,24.3-44.36,36.88-66.52,7.97-13.81,16.34-26.78,25.17-40.16,8.36-12.97,16.72-26.35,26.39-38.5,13.43-17.14,28.09-33.05,44.43-47.28,16.77-15.05,32.7-30.53,50.71-44.34,23.42-18.04,48.37-34.01,74.57-47.72,21.39-11.27,43.59-20.1,65.8-28.46,14.25-5.43,29.75-7.94,44.43-12.54,16.75-5.45,33.52-7.94,51.12-8.37,11.31-.43,22.22-1.68,33.52-2.93,10.06-.8,20.11-1.65,31.02-2.91-1.27,1.67-1.69,2.51-2.1,3.33-4.59,6.7-9.62,13.4-14.24,20.08-3.77,5.45-7.96,11.3-11.74,16.73-6.72,8.81-13.85,17.59-20.13,26.8-9.63,13.81-18.44,28.04-28.5,41.83-10.04,13.39-20.94,25.94-31.42,38.9-13.82,18-26.82,36.4-40.64,54.39-12.58,17.15-25.96,33.5-38.12,50.64-10.9,15.03-20.55,30.96-31.03,46.4-15.49,23.02-31.01,45.6-46.5,68.61-12.17,17.52-24.46,34.95-36.88,52.29-.85,1.27-2.1,1.65-3.35,2.49-3.34,5.43-3.34,8.37-4.62,10.88-3.34,6.27-6.69,12.54-10.48,18.41-2.1,3.34-5.03,6.26-7.55,9.61-.42-5.02,6.69-7.52,3.35-13.81-2.07,3.36-4.19,6.28-6.28,9.63l-5.03,10c1.67,1.27,4.62,2.11,1.67,4.6-1.27,2.11-2.52,4.61-3.78,6.72,2.1-1.27,3.35-2.51,4.62-4.19,0,4.6-2.51,8.35-4.62,12.11-1.67,3.34-5.86,5.88-8.79,8.37.42.43,3.35,1.68,3.78,2.1,3.78-1.27,5.03-3.33,5.46-2.1,1.27-1.67,2.52-2.92,2.93-4.17,1.66-4.19,4.17-7.52,8.36-9.21,1.69-.84,2.93-2.1,4.19-3.34,12.58-12.99,25.58-25.53,36.89-39.34,17.61-21.35,33.54-43.5,50.32-65.25,7.11-9.21,15.5-18.41,23.03-27.21,1.24,9.62.41,18.81,0,27.62-1.28,15.46-2.1,30.96-3.35,46.83-.43,6.27,0,12.54-.43,18.83,0,1.67-1.27,2.92-1.27,4.6,0,4.17,1.27,8.78,1.27,12.97-1.27,15.48-2.96,30.53-4.22,46.01-.43,3.33,1.24,6.7,2.07,9.64-2.07,22.57,2.55,46.43-1.24,70.28,2.93-4.6,3.77-7.53,3.77-10.45.4-2.51,0-5.02,0-7.94v-4.19c.4-7.54,2.07-15.48,1.24-23.02-.85-8.37-.85-16.3.84-24.25.85-3.34-.41-7.53,1.69-11.72v6.27c-.41,23.81.43,47.67-2.92,71.52-.43,2.09,1.28,5.87-3.34,5.44-3.79,7.52.83,12.97-3.35,17.15-.86.84.8,4.6,1.23,7.11q-1.69,5.04.83,5.45c.41,9.21,1.27,17.56,1.67,26.35,6.69-15.87,3.34-32.23,6.3-48.55.42,6.7.85,13.4.42,20.48,0,10.91-.42,21.35-.83,32.23,0,2.09-.43,4.19-.85,6.28-1.27,5.88-1.67,11.72-3.77,17.15-1.67,4.19-.83,10.48-.83,15.48v15.92c1.67,7.11-.43,10.87.83,15.05-1.28,4.21-1.67,5.46-1.28,6.71l1.28,6.27c8.39-.84,4.62,5.45,7.96,8.78-2.52,3.37-1.67,4.6-1.67,6.3,0,3.77-.4,7.12-.83,10.88,0,9.62-.41,19.24-.41,28.45,0,1.27.41,2.49.41,3.75,0,.86-.41,11.75-.41,11.75.84,1.24,0,2.49-1.28,3.75-.4,0-1.66-53.13-1.66-53.13h-6.29c-.82,25.08,1.28,47.67-3.34,71.12-5.03.39-6.69,1.24-12.17,1.24-12.99,0-25.99,0-38.99.41-15.51,0-30.58.42-46.1.42-7.51,0-15.48.86-23.03.86-10.06,0-20.54-1.27-30.58-1.27-15.53,0-30.61,1.27-46.12,1.68-11.31.41-22.62.41-33.92.84-7.57.4-15.13.79-22.65,1.65-3.35.41-6.29,1.67-10.48,2.92-1.28,0-4.19-.41-6.69,0-4.22.84-7.97,3.33-12.19,4.19-6.29,1.27-7.96,2.92-7.13,9.21v4.17c-.41.83,9.23-1.27,9.23-1.27-.86,0-1.27,2.51-2.54,4.6,3.38-1.27,5.46-2.1,7.56-2.92,6.29,2.93,11.74,1.27,16.75,2.53,16.34,4.16,33.09,5.88,49.85,7.51,10.91.84,21.39,1.27,32.28,1.67,15.49.84,31.01,1.68,46.5,1.68,13,0,25.58-1.27,38.54-1.27,17.99,0,36.05.82,54.07,1.27,3.78,0,7.97-.44,12.15-.44h30.58c27.26-.82,54.5-1.27,81.75-2.06,15.53-.44,31.45-1.27,46.95-1.7l47.77-1.27c18.45-.42,36.89-.42,54.91-.8,13.82,0,27.24-.48,41.09-.87,15.48-.41,31.41-1.67,46.91-2.49,8.4-.43,16.79-1.27,25.17-2.1,10.06-.83,20.54-2.06,30.57-2.49,15.1-.86,30.61-1.27,45.71-2.11,18.85-1.24,37.71-2.91,56.98-3.34,17.61-.82,35.62-.41,53.24-.82,15.51-.43,31.02-1.27,46.95-1.68l26.44-1.27s17.59-.42,26.39-1.27c15.08-.82,30.17-2.49,45.27-2.91,9.61-.43,19.27,0,28.9-.43,15.49-.41,31.42-1.27,46.93-1.27,5.85,0,12.14.86,19.69,1.27-3.35,2.94-5.45,4.61-7.97,6.7,1.67.42,3.35,1.27,5.04,2.1-2.52,1.67-4.62,2.06-6.69,2.06-.86,2.11-1.7,2.96-2.55,7.15h7.55c-2.93,0-5.45,3.76-8.37,6.27-3.35-.86-6.29,0-7.97,4.6,2.93,1.65,2.52,2.91,2.1,4.6-5.03,1.65-8.8,3.33-6.69,8.76-1.71.82-3.79,1.67-5.89,2.92-2.07,3.34-5.86,4.18-5.03,8.78,1.69.39,3.35,1.27,4.62,1.65-2.1.84-4.19,2.1-6.29,2.92-7.53,4.6-4.17,6.7-2.5,8.8-1.27.84-2.51,1.67-3.77,2.1.83,3.76,2.07,4.6,2.5,4.6-1.67,1.24-3.78,2.92-6.29,5.02-1.27,3.76-2.94,5.43-4.62,7.94-1.67,2.51-2.52,5.88-4.62,8.37-8.79,9.63-15.08,20.95-26.39,28.46-4.21,2.94-7.97,6.7-11.74,10.48-7.55,7.09-14.25,15.05-22.22,21.75-10.47,8.78-21.34,16.72-32.68,24.67-13.81,9.62-27.63,19.24-41.47,28.45-7.55,5-15.92,8.76-23.89,13.37-7.96,4.6-15.51,8.8-23.47,13.39-5.03,3.33-9.66,7.94-15.1,10.47-13.82,5.88-28.5,10.88-42.75,16.32-13.85,5.87-23.89,10.87-34.37,14.63-9.64,3.34-19.7,5.88-29.75,7.94-3.35.86-7.13,0-10.91.43-7.13,1.27-14.26,2.96-21.39,3.78-18.44,2.51-36.89,4.19-55.32,6.7-10.91,1.27-21.38,3.34-32.28,4.6-7.54.41-15.5-.41-23.05-.41-5.45,0-11.31,1.27-16.77.43-8.8-1.27-17.6-3.34-26.41-5.02-2.07-.41-5.03-1.27-6.69-.41-3.35,1.68-6.31-.83-9.67,0-2.07.43-4.17-1.27-6.27-1.27-1.69-.4-3.79.44-5.89,0-4.62-1.24-8.79-2.91-13.85-2.49-4.99.41-10.04-2.1-15.45-3.33-7.56-1.68-14.65-3.34-22.23-5.03-2.92-.84-5.41-2.1-8.36-3.76-10.91,0-18.04-.42-24.75-2.94-5.86-2.06-11.3-5-17.6-4.16-1.66.41-2.92-.41-4.62-.41-1.28-1.68-2.5-5.03-3.74-5.03-8.37.43-13.41-6.67-20.55-8.78-3.76-1.27-6.69-5.44-10.46-6.7-9.23-3.76-16.76-11.7-27.24-12.95-3.34-.43-6.69-2.1-10.48-3.34,1.28,1.65,2.07,2.91,3.35,4.16-12.15-5.88-23.46-12.54-34.79-18.83-1.66-.41-2.91-2.06-4.17-2.92l-11.31-7.52c-6.29,1.27-8.81-1.27-10.51-2.1-11.31-7.94-24.29-12.97-35.2-21.75-4.62-3.78-10.03-6.28-13.38-10.89-5.89-7.11-13.01-12.13-20.98-16.3-6.27-3.34-12.13-7.12-17.99-10.88-2.95-2.1-5.89-4.6-5.89-9.21,0-2.94-1.24-5.87-5.02-4.19-1.67-2.51-3.35-5.43-5.45-6.27-5.03-2.06-8.37-5.88-12.15-9.21-3.78-3.34-6.69-7.94-11.31-9.61-8.39-3.33-13.43-10.45-18.44-16.31-11.76-13.81-22.23-28.89-33.13-43.5-.85-1.27-2.52-2.11-3.78-3.36,1.67,4.6,3.78,8.37,5.86,12.54-4.17-1.66-7.11-4.6-9.62-7.52-.43.43,28.9,48.53,28.9,48.53,2.55,3.77,4.62,7.55,7.14,11.31-6.29.41-10.48-2.94-12.58-6.7-3.76-6.67-7.96-10.86-16.34-10-.83-2.95-1.67-6.3-2.07-9.21-1.7,0-2.94,0-5.89-.43,5.89,9.21,10.91,17.14,16.35,26.35-2.11-1.27-3.34-2.1-4.22-2.51,7.53,7.94,12.98,17.99,22.62,23.02,2.1,9.6,13,14.2,15.51,23.41-2.07-.43-3.79-.84-5.89-1.27-3.35-4.17-7.12-8.35-10.88-12.96.83,2.92,2.07,5.43,3.76,7.52,5.03,6.27,9.66,12.54,15.51,17.99,2.1,2.13,5.03,2.97,5.03,6.73,3.35,1.67,4.62,2.06,5.86,2.06.86,2.54-.4,6.3,4.62,5.46,3.35,6.27,6.69,6.27,11.31,4.19,5.46,5.45,8.41,5.88,12.17,2.54,0,2.06.41,4.16.41,5.84,1.67-.84,1.28-2.1,1.28-4.19,2.07,1.67,3.35,2.51,4.17,3.34,4.19,5.87,7.96,11.3,13.82,15.91,7.96,6.7,15.1,13.81,22.61,20.08,14.68,12.14,31.06,22.19,47.38,31.39,20.13,11.3,39.42,23.43,59.95,34.29,24.72,12.99,51.12,21.78,78.36,28.05,10.06,2.1,19.7,4.18,29.79,6.67,8.75,2.54,17.58,6.31,26.39,8.38,13.41,2.94,27.23,5.45,40.64,7.94,2.92.43,5.89.86,9.24,1.27,3.74.84,8.35-.84,9.19.43,2.1,3.33,3.78,1.65,6.29,1.24,2.93-.84,6.29-.84,9.63-.84,11.74.42,23.05,2.92,34.78,2.1,2.55,0,6.31-2.11,8.41,2.06,3.76-1.67,5.86-1.67,7.53-2.06.45,3.75,0,3.75-.8,4.16-.86.41-2.12.84-3.79,2.09,15.08,2.92,29.33,3.34,41.89,0,21.82,1.67,40.67-.84,58.7-7.11,1.67,2.1,2.93,5.02,5.45.84.83-1.27,2.93-1.7,4.62-2.11,3.76-.84,8.38-2.51,11.72-1.27,3.79,1.27,5.05-2.06,7.97-2.06,5.05,0,9.65-.43,14.27-1.27,2.51-.42,5.03-1.67,7.96-2.51-2.87-1.42-6.03-2.14-9.23-2.11,4.71-2.32,9.46-4.55,14.26-6.67-.84,1.24-1.68,2.91-3.34,2.91h5.84c-1.27,0-2.94,3.76-5.02,6.27,15.06-3.76,28.88-7.11,42.31-10.48-4.62-8.76,5.02-5.83,8.37-10.86-4.19,1.27-8.37,2.51-12.58,3.34,14.26-7.1,28.93-13.37,43.16-19.64-2.07,2.51-4.62,3.76-8.36,5.87,2.52.4,4.19.4,5.45.8,6.69,2.11,5.03-4.16,7.12-7.94,7.96,0,11.31-1.24,15.08-2.51,4.19-1.27,8.38-2.51,12.58-4.17,6.69-2.92,12.98-6.67,19.68-10,1.28-.44,3.35,0,5.03,0,4.62-2.95,6.27-5.46,7.53-5.05,5.89.84,10.04-1.27,11.72-6.67,2.93-2.11,5.03-3.78,7.12-5.05,9.21-5.02,18-10.04,27.24-15.05,3.34,0,5.03,0,5.86-.43,5.48-2.54,10.51-5.43,15.53-8.37-1.27-.41-4.19-2.06-4.19-2.06,4.17-.86,5.42-1.27,7.97-2.11,10.03-11.75,23.89-19.69,34.35-28.89,4.62-.42,4.62-1.67,4.62-2.49,1.66-2.1,3.35-4.6,5.42-6.29,9.23-8.37,19.27-15.48,27.66-24.26,12.15-12.16,23.89-24.72,34.78-37.69,10.04-11.71,20.13-23.42,28.51-36.39,11.74-17.98,21.79-36.4,32.27-55.25,7.55-13.37,14.25-26.75,21.82-40.13.8-1.27,2.5-2.93,3.76-2.93,11.31-1.27,22.65-2.06,33.54-3.34,2.51-.41,5.45-2.06,7.96-3.33-1.28-2.1-2.1-4.6-3.35-6.7-1.68-2.54-4.2-4.6-5.88-7.15-1.66-2.06-2.92-4.6-4.18-7.09-1.27-2.06-2.52-3.75-3.78-5.88-2.54-4.6-5.05-9.21-7.17-14.19-.41-1.27-1.27-3.34-.83-4.6,7.55-16.31,10.48-33.88,17.6-50.2,7.12-16.73,9.23-35.56,12.58-53.55,2.93-17.14,4.62-34.29,6.69-51.43,1.28-12.13,2.94-23.85,3.35-35.97,2.55-19.24,1.69-37.25,1.27-55.25-.41-15.87-1.27-32.19-2.07-48.1l-.05-.05ZM187.34,1053.02c-2.93-3.33-5.45-7.11-8.37-10.44l1.27-1.27c4.57,5.02,9.19,10.05,13.8,15.49-2.52-1.27-5.45-2.1-6.69-3.78h0ZM194.03,1056.8c1.27-.43,2.55-.43,3.79-.84,1.28,2.1,2.1,4.6,3.35,7.11-5.86-.43-8.79-2.93-7.12-6.27h-.01ZM629.92,1229.57v-1.27c7.96-.83,15.49-1.67,23.46-2.49v1.22c-7.97,1.27-15.49,2.06-23.46,2.51v.03ZM735.51,1218.7c-5.85,1.27-12.14,2.11-18,2.95-2.1.41-4.62,2.51-5.45-1.27-.85.43-1.69.43-2.52.86,2.07,6.25,7.12,1.24,11.31,3.74-9.23,1.27-18,2.1-26.82,3.34v-.83c2.55-.41,5.46-.84,7.97-1.27v-1.24c-4.18-.43-8.37-.84-12.58-.84-1.23,0-2.92,1.68-4.17,2.1-1.67.42-3.35.84-5.45.84-7.12.41-14.24.41-20.96.83-.43,0-1.28-.42-1.69-.42v-1.27c28.08-3.75,55.74-7.51,83.82-11.27.43.82.43,1.67.85,2.49-2.52,0-4.19.87-6.29,1.27h-.01ZM741.82,1214.54c9.65-1.27,18.47-2.09,27.68-3.33-19.27,5.43-25.56,6.26-27.67,3.34h-.01ZM376.78,369.89c13.38-18.41,27.23-36.83,40.64-55.64,4.19-5.48,7.54-11.33,11.72-16.77,1.27-1.68,2.94-2.51,5.03-4.19l-.42-.79c1.67-2.11,3.35-3.81,4.19-5.46,2.14-3.34,3.39-7.12,5.07-10.88.41-.79,1.67-1.63,1.67-1.63,5.89,2.92,5.89-3.34,7.96-5.45,3.76-4.22,7.39-8.54,10.89-12.97,2.52-3.34,5.03-6.27,7.13-10.04.42-1.27-.84-3.33-1.27-5.03h-1.24c1.27-.82,2.51-2.06,3.77-2.92q.42,0,.83-.41c2.52-3.78,5.03-7.54,7.55-10.89,5.02-6.67,10.47-13.37,16.32-19.21-.83,2.06-1.67,4.18-2.52,5.84.43,0,.43.43.85.43,5.03-6.7,10.48-12.97,15.51-19.69-.43-.4-.85-.82-1.28-.82-2.07,2.1-3.76,4.19-5.86,6.28-.41-.43-.83-.84-1.27-.84,4.22-5.45,8.41-10.88,12.58-17.15.84,1.27,1.68,2.92,3.34,6.27,1.71-4.17,3.38-7.1,4.62-10.03-1.24,1.27-2.91,2.51-4.17,3.78l-1.28-1.27,7.55-11.27c7.97-11.3,15.92-23.02,23.89-34.33,2.95-4.17,6.69-7.52,9.23-11.71,7.97-15.87,20.55-28.45,30.17-43.08,2.1-2.92,5.03-5.43,7.55-7.94,2.07-2.53,3.78-1.68,5.45.41,11.31,14.23,22.62,28.86,33.92,43.09,8.41,10.47,16.79,20.48,24.75,31.37,9.63,13.4,18.85,26.78,28.5,40.16,10.9,15.48,21.79,30.96,32.27,46.83,15.93,23.45,31.01,46.88,46.94,70.3,11.74,17.14,23.48,33.89,34.78,51.04h-21.41c-19.69-.4-39.82-2.06-59.5-1.24-26.82,1.27-54.05,4.19-80.87,6.29-33.95,2.94-68.32,3.33-102.24,3.33-12.19,0-24.34,1.7-36.47,2.54-14.68.83-28.94,1.67-43.61,2.06-17.2.86-33.92,1.27-51.12,1.7-9.65.41-19.7,0-30.18,0l.02-.08ZM857.47,562.3v3.78c-.42,0-.83.43-1.67.43-1.67-5.88-3.35-12.16-5.45-18.02-4.19-12.14-8.81-24.29-16.35-35.15-8.41-11.7-15.93-23.81-24.34-35.96-2.07-2.94-5.03-5.45-7.55-7.94-8.81-9.64-17.61-19.69-28.93-26.78-16.66-10.42-34.19-19.38-52.39-26.8-5.03-2.06-9.64-4.6-14.65-7.53h10.04l71.67-1.27c15.51-.4,30.61-.4,46.1-1.24,3.76,0,5.86,1.27,7.97,4.6,3.76,6.27,7.53,12.54,11.72,18.83.43.82,1.27,2.06,1.27,3.33,0,9.21,0,18.83.42,28.04.4,9.62,1.27,18.83,1.65,28.45,0,9.62-.84,19.65-.41,29.69.43,14.24.84,28.89.84,43.5l.07.03ZM406.51,422.22c19.7-.84,38.54-2.1,57.85-2.94,15.05-.84,30.58-1.27,45.64-2.09,6.29-.4,12.17-.8,18.44,0-6.69,3.36-13.41,6.71-19.27,10.89-7.55,5.02-14.65,11.7-22.22,17.14-7.56,5.43-14.27,12.13-20.54,19.24-7.97,9.61-16.77,17.98-25.17,27.18-5.89,6.7-12.58,12.97-17.6,20.08-7.12,9.21-13.41,19.21-20.12,29.69,2.1-39.75,4.62-79.06,2.93-119.22l.05.03ZM680.2,824.66c-13.43,3.33-27.23,7.11-41.09,8.78-11.72,1.67-23.89,1.27-36.04,1.27-10.93,0-21.41-.42-32.3-1.27-12.15-1.24-24.31-2.5-36.04-7.94-10.08-4.61-20.55-8.78-30.58-13.82-10.09-5.02-20.14-10.86-27.71-20.07-5.41-6.71-12.98-12.14-19.68-18,1.23,5.04,4.39,9.4,8.8,12.13-2.1,2.51-5.03,1.27-9.23-5.45-1.24.84-2.5,1.27-3.35,1.68,1.28-2.94,2.52-5.88,3.78-8.37-1.67-3.33-3.78-7.11-5.45-10.47-3.36-5.48-6.58-11.06-9.63-16.72-.85-1.27-.85-2.51-1.67-3.77-2.1-2.51-4.21-5.03-5.89-7.54-3.35-5-6.28-10.43-10.47-15.46,0,1.27.43,2.51.43,4.19-.43,0-.84.41-.84.41l-8.83-21.33q-.41,0-.83.41l7.54,27.63c-.42,0-.83.39-1.28.39-1.22-1.65-2.49-3.33-3.35-5.4-.83-3.37-3.34-3.37-5.41-2.11-1.27.84-2.12,3.76-1.69,5.02,2.95,7.11,6.29,14.22,9.65,21.33.83,2.51,1.67,4.6,2.93,7.12.43.84,1.69,1.67,1.69,2.92,1.68,3.33,2.94,6.67,5.03,9.62,3.78,5.02,7.97,10.04,11.74,15.05,3.74,5.02,7.09,10.48,10.45,15.48.42.84,1.67.84,2.07,1.27,2.12,6.27,9.23,10.86,14.27,8.35,1.27,9.62,11.74,12.97,15.92,22.18-5.03-2.1-8.79-3.76-12.15-5.45-.43.41-.43.82-.86,1.67,5.03,2.51,10.06,5.02,14.65,7.94,4.22,2.54,8.41,5.03,12.18,7.94,5.03,4.61,10.91,7.15,18,8.8-.38-1.27-.8-1.7-.8-1.7,11.09,5.16,22.13,10.45,33.09,15.87-43.59.86-90.11,1.7-138.31,2.54,0-7.94-.42-15.48-.42-23.43,0-3.34.83-6.27.4-9.62-1.27-19.21-1.27-38.49-3.78-57.31-2.5-20.07-2.5-39.73-2.07-59.85.4-10.84-.43-22.13-.86-33.02,0-14.63,0-28.89.44-43.5,0-2.09.85-3.76,1.69-5.87h1.28c.4.86,0,2.11.8,2.54,1.27,1.27,3.38,3.34,4.22,2.92,2.5-1.68,6.27-3.34,7.12-5.88,2.07-5,2.93-10.45,2.93-15.46,0-3.75,1.69-6.26,3.35-8.78.86-1.27,1.27-2.5,2.12-4.17-1.67-1.27-3.35-2.1-5.45-3.76,1.69-4.61,1.27-10.05,7.56-12.54.83-.43.83-2.54,1.28-3.78.4-3.38.8-7.14,1.24-10.48.83,1.27,1.27,1.67,2.07,2.49.45-.82.86-1.27.86-1.27,0-1.65-.41-5,0-5,5.03-.84,2.93-6.27,5.45-8.78.4-.44-.43-1.7-.43-2.54s0-2.06.42-2.06c5.84-1.27,5.02-7.54,8.79-10.48,1.27-.84,1.67-2.06,3.35-4.17,3.35,5.84-2.52,8.78-2.93,12.96,7.11-4.18,9.21-14.21,5.02-17.15,1.67-1.27,3.34-2.92,4.62-4.6,4.62-5.02,9.62-9.62,13.82-14.64,2.94-3.74,4.62-8.35,7.55-12.11,1.69-2.1,5.03-3.77,7.55-5.03,7.55-4.16,14.65-8.76,19.27-15.87.85-.84,2.1-1.67,3.35-2.51,1.27-.84,3.79-.84,4.21-2.1.43-.83-.83-2.92-1.67-4.18,1.66-.84,3.35-2.51,6.69-4.19-1.27,2.51-1.67,4.19-2.52,5.88l2.07,2.06c3.79-2.92,9.65-6.26,13.42-8.76,0-.4-2.1-2.06-2.1-2.06-2.5,1.27-6.27,3.34-10.03,5.02.79-1.27.79-2.1,1.27-2.51,5.84-3.76,11.71-7.52,18-10.48,14.65-6.66,29.33-13.36,44-19.64,2.52-1.27,5.89-.41,8.81-.41,1.24,0,2.07,0,3.35-.41,6.69-2.1,13.4-4.19,20.11-5.88,3.01-.82,6.12-1.24,9.23-1.24,12.54.39,25.12.39,37.68,1.24,5.45.41,10.48,1.67,15.51,3.34,6.27,2.11,12.98,5.03,18.86,7.94,7.07,3.81,13.93,8.01,20.54,12.58,12.15,7.94,23.46,16.73,35.61,23.85,11.74,7.11,20.96,16.73,28.51,27.62,9.23,12.96,19.7,24.67,23.89,40.56l6.28,27.63c1.27,5.02,4.2,10.03,2.94,15.87-2.12,10.48-3.79,21.35-5.46,31.81-.83,4.21-1.67,8.42-1.24,12.54.8,13.02-4.22,24.29-9.23,36.01-1.69,3.76-4.21,7.54-6.29,11.71.41.41,2.93,1.68,3.35,1.68l3.78-7.52q.43,0,.84.43c-2.1,5.84-3.78,12.13-5.89,17.99-5,12.97-10.03,26.35-16.32,38.89-3.35,7.11-9.23,12.97-13.41,19.69-4.17,5.84-7.53,12.11-11.72,17.55-3.78,4.6-7.53,9.21-12.58,12.54-11.3,8.37-23.04,16.74-35.19,23.43-7.53,4.6-16.34,7.11-24.72,9.21l.11-.05ZM456.81,802.43l-.42.43c-.88-.41-2.14-.82-2.96-1.67l-10.06-15.08c-.83-1.24-1.28-2.49-.83-4.16,4.51,6.99,9.27,13.82,14.25,20.48h.02ZM717.52,859.74c18.84-7.94,34.35-19.21,48.57-32.19,2.12-2.1,4.21-4.17,6.72-5.88,17.62-10.86,30.58-25.92,42.33-42.65,13.41-19.24,22.22-40.99,33.13-61.49.83-1.68,1.66-3.34,2.5-4.6-.84,47.69,4.62,94.53,10.9,141.82-47.35,1.67-95.56,3.33-144.16,5.02v-.02ZM1142.47,847.2c-.42.84-1.28,1.68-1.67,2.53-.43-.85-.43-2.11-.84-3.8-2.52,6.71-7.97,3.36-11.74,3.36-22.62.43-45.67.43-68.32.43s-43.99,0-65.77.38c-7.14,0-14.69,1.67-21.82,2.09-17.17.83-34.36,1.27-51.54,1.67-1.27,0-2.52-2.06-4.62-3.75-.42.84-1.28,2.1-2.52,3.76-.45-.82-1.28-1.65-2.12-2.91-.41,1.27-.84,2.51-1.27,3.34h-1.21c-.84-5.84-2.52-11.27-2.52-17.15,0-12.54,1.28-25.08,1.67-37.66.43-5.84,0-11.27,0-16.73,1.69,1.27,2.94,2.11,4.62,3.33.83-1.63,1.67-2.89,2.52-4.12,0,0-.85-.45-1.69-1.27.8-.43,1.66-1.27,1.66-1.68.41-1.27,1.27-2.51,1.27-3.33,0-2.94-.86-5.45-1.27-7.94.41,0,.83,0,1.27-.44l2.5,12.54h1.27c-1.69-2.9,3.76-5.43-.84-8.76-.42-.43.41-2.94.41-4.19-1.27-2.49-2.07-5-3.35-8.35.42-.41,1.67-.84,2.93-1.27-1.67-.83-2.93-1.65-4.19-2.06,4.19-3.78,4.19-5.88.42-10.05.86-.4,1.69-.4,1.69-.8,0-3.78,0-7.54-.83-11.27-.85-4.22,1.27-9.21-5.03-11.75.42,1.27.85,2.1,1.67,3.33,0,0-1.28.43-2.52,1.27-5.45-5.03-2.07-11.75-3.35-19.26,2.93.84,5.04,1.68,7.12,2.54-.84-2.95-2.93-6.3-4.19-10.07h-1.7v-27.62c0,.43,2.93.43,4.62.86,0-.43.4-.84.4-1.27-1.28-1.67-2.95-3.34-4.62-5.43l.84-.84c-3.35-4.16-1.67-10-1.67-11.27v-29.29c4.21,4.19-2.07,9.62,4.21,12.13v-4.18h-.43c-.41-6.27-.41-12.54-.82-18.83h-.83c-.43.86-.43,1.27-.86,2.11h-.83l2.52-99.98c4.19,5.43,8.79,10.48,11.72,15.87,9.65,17.59,22.22,32.66,33.95,48.55,10.07,13.81,19.27,28.86,28.51,43.08,11.31,17.15,22.2,34.29,33.52,51.44,8.37,12.99,17.2,25.96,25.96,38.52,7.97,11.27,16.37,22.16,24.75,33.05,7.1,9.62,14.65,19.24,21.77,28.86,8.39,11.72,16.77,23.42,25.16,34.72,4.17,5.84,8.79,11.7,13.38,17.56,2.55,3.33,6.31,5.87,8.83,7.94-.4,0-.83,0-1.66-.41,1.27,1.67,2.07,2.92,2.93,3.76,4.62,2.51,5.03,5.02,2.52,8.8l.03-.1ZM1163.84,742.64v-2.94c0,.83.42,2.06,0,2.92v.02ZM1178.1,558.17c-.43,0-2.93-2.53-3.35-2.95-.43,1.27,0,2.51-.84,4.19-.43-1.24-3.35-.82-3.35-2.06-.43,5.84,2.5,11.7,2.07,17.56,1.28-.84,6.29-1.27,7.55-2.51.43.41,1.28.82,1.69.82-8.39,6.29-6.29,12.54-2.52,19.69.83,1.65,3.35,5,.83,8.35-.83.84.43,3.33.85,5.45h1.22v.79l-3.77,1.27c-.83-1.27-5.85-3.74-5.85-5.87v21.37c4.19,1.27,4.19,7.12,5.86,10.05.88-1.27,1.28-2.11,1.71-3.33l.43.38c-.43,2.51-.85,5.02-1.69,7.54-.83,3.75-1.67,7.1-2.07,10.86,0,.41.8,1.27.8,1.67-4.59,10.48-2.07,22.16-3.74,33.02-1.27,7.94,0,16.35-.84,24.7-.86,7.11-2.55,14.64-4.21,21.75-.43,1.27-1.27,1.67-3.35,2.51.83-5.02.42-8.37-.43-12.97-.44,0-5.89-2.92-6.32-2.92,0,5.88,3.34,13.81,4.62,20.48-1.28-.41-6.29-3.33-6.69-3.33-.86,5.02-.86,11.71-1.27,17.15-.43,4.19-4.19,7.94-4.62,12.54,0,2.54,2.93,4.19,2.51,8.38h3.35c0-8.35,3.79-15.87,3.79-24.67h1.24c.43.84,1.69,1.68,1.27,2.1-.84,4.6-2.55,9.62-2.1,14.22,0,2.51,2.07,5.02,1.27,7.94-.86,2.53-1.27,5.03-1.7,8.8-.43-2.1-.84-2.92-.84-4.18-.42,0-4.19-.43-4.62-.43-.42,2.51,2.94,5.02,2.51,7.11-.41.42-.83.42-1.67.85l-13.82-20.1c-11.02-15.96-21.92-31.99-32.71-48.1-2.82-3.99-5.35-8.18-7.56-12.54-12.98-22.19-27.24-43.53-43.16-64.03-12.14-15.46-21.82-32.23-33.13-48.5-10.45-15.48-20.93-30.55-31.41-46.04-3.78-5-8.37-9.61-11.74-15.05-10.88-17.15-20.55-34.72-31.41-51.87-9.23-14.24-19.27-28.05-28.93-41.85-3.34-4.6-6.69-9.63-10.06-14.65-.41-.79-.83-1.63-.83-2.89-.84-9.21-1.69-18.41-2.1-27.2,0-8.37.84-16.73.84-25.53v-7.52c0-2.1.4-3.77.4-5.88.4-.4.83-1.24,1.24-1.65-12.15,0-24.73-.44-36.88,0-7.96.4-12.15-2.95-17.6-8.81-15.92-17.99-27.66-38.48-41.49-57.72-12.99-18.41-26.4-36.42-39.81-54.41-10.91-14.64-21.82-28.86-32.7-43.5-12.17-16.73-23.89-33.46-36.47-50.2-15.1-20.07-30.61-40.16-46.1-60.23-7.17-9.21-15.13-17.98-23.09-27.62,5.46.86,10.51,1.68,15.53,2.11l20.13,1.27c15.08,1.22,30.17,2.07,45.23,4.13,12.58,1.7,25.17,4.21,38.16,6.28,27.68,4.61,54.91,12.14,81.32,20.93,15.51,5.02,30.58,11.71,45.71,17.98,33.92,13.82,66.2,30.55,98.06,48.1,10.03,5.45,15.92,14.22,23.44,22.18,10.91,11.3,21.82,22.59,32.28,34.29,12.14,13.81,23.44,28.03,35.19,42.26,10.47,12.54,21.34,25.08,31.85,37.65,3.35,3.77,5.89,8.37,8.79,12.54,6.69,10.05,14.25,19.69,20.12,30.55,4.17,7.97,6.69,17.17,9.62,25.96,4.17,12.97,8.37,25.51,12.58,38.48,2.93,9.78,5.44,19.69,7.51,29.69,1.69,6.72,1.27,13.82,3.35,20.48,2.55,8.83,0,18.41,2.55,27.22.39.84.79,2.1,1.24,2.94,1.67,1.65,2.93,3.34.41,5.84-.4.42-.4,2.07,0,3.34.86-.82,1.28-1.67,2.12-2.92,0,.84.4,1.27.4,1.67,0,1.65-.43,3.34,0,5,0,.82.83,2.06,1.24,2.92.84-.86,1.67-1.27,3.35-2.54,3.77,14.24,4.2,28.46,4.2,43.1,0,13.81,2.5,27.62-3.34,41.01,1.24-4.6-1.69-8.81-.43-12.99l.18.11Z"/>
  <path class="cls-1" d="M910.3,720.86c.4,0,.83.43.83.43l-.43-.48q0-.4-.42,0l.02.05ZM976.5,1134.19c-4.62,3.34-9.23,6.27-15.1,7.53-.45-.42-.45-.84-.86-1.27,4.62-2.92,9.63-5.84,14.25-8.78.43.8,1.27,1.65,1.69,2.49v.03ZM190.69,567.32c4.62-5.83,9.23-11.68,14.24-17.54.4.41,3.74,1.27,4.17,1.67-4.62,5.88-10.91,13.82-15.51,20.08-.86-.84-2.12-3.76-2.94-4.19l.05-.02ZM71.63,772.35c-3.34-7.11-6.69-14.65-10.03-21.75.42-.43,3.35-1.68,3.76-1.68,4.62,6.67,6.69,14.61,10.07,21.75,0,0-3.35,1.67-3.78,1.67l-.02.02ZM178.53,571.53c-2.51,3.78-5.03,7.97-7.55,11.75-.42-.44-5.03,1.65-5.45,1.24,2.51-3.77,8.79-10.48,11.3-14.23.43.41.85.84,1.69,1.27v-.03ZM931.68,1151.38c.39,0,.39-.41.82-.41,2.93.41,6.27.82,9.64.82-5.48,3.76-8.84,3.34-10.51-.41h.05ZM179.32,589.09c.45-1.27,1.28-2.51,2.12-3.76.83,0,2.07-.43,2.07-.43,1.7-2.92,1.7-5.02,3.38-7.52-.42-.41-.85-.41-1.28-.84-2.5,1.72-5.02,3.81-7.53,5.48.84.82.84,1.27.84,2.1-3.34-.43-4.62,1.27-6.29,5.84-.41,1.27-2.51,1.68-4.62,3.34-.41.86-.83,2.95-1.67,5.03l.43.44c-.85.84-2.1,1.27-2.1,1.27-2.52,2.49-5.45,4.61-7.97,7.1-.41,1.27-.83,2.51-.83,3.76,2.95-2.92,7.97-8.37,11.74-11.71l.43.43c1.67-2.51,2.93-5.02,4.62-7.52.4.41.4.82.83,1.27-1.28,3.34-2.52,7.08-3.78,10.43-.88.41-2.14,1.27-2.14.84-1.67,1.27-2.93,2.92-4.62,4.18l-7.53,5.02c-4.19,3.76-8.37,7.09-13,10.87-2.93,4.6-5.86,8.78-9.23,14.23,5.05-1.27,6.31.84,5.89,5.03,5.86.83,6.29-3.76,7.97-7.11.41-.86.84-2.54,1.67-2.96,3.78-3.34,7.96-6.26,12.15-9.61.85-.84.85-2.54.85-3.78,0-.41-2.12-.41-3.38-.84,3.78-4.19,9.23-11.27,12.99-15.87,2.1-1.27,4.19-2.95,4.19-4.21-.41-4.6,2.52-5.84,5.89-7.52-1.69-1.27-2.12-2.49-2.12-2.91v-.05Z"/>
  <path class="cls-1" d="M187.74,584.49c-1.67,2.92-3.35,5.43-5.02,8.37l-2.52-1.27c-1.67,9.61-7.55,17.97-13.41,19.64,1.67.84,3.35,1.68,4.62,1.27,1.24-.43,2.07-2.53,2.92-3.78l11.31-16.32,3.79-6.29-1.67-1.66v.05ZM48.2,768.14c2.1,0,4.21.42,6.69.42,0-1.67,2.12-1.27,2.12-2.92h1.27c0,2.1.42,3.76.42,5.88h-8.8c-.43-.43-2.1-2.95-1.69-3.37h-.01ZM44.85,748.9c-1.27-1.27-3.35-2.51-3.35-3.76-.43-1.65.83-3.73,2.07-5.83.86,2.92,1.27,5.43,2.1,8.37-.43.39-.84.82-.84,1.24h.01ZM55.33,722.11c1.67,4.22,3.35,8.83,5.03,13.02-.42,0-2.93,1.27-3.35,1.67-1.67-4.19-3.78-8.8-5.45-12.97.41-.41,2.93-1.68,3.78-1.68l-.02-.03ZM988.27,1122.08c2.07-.82,4.59-1.27,7.97-2.06-3.79,2.91-6.73,5-9.24,7.51-.43-.42-.85-.85-1.28-.85.85-1.67,1.69-2.92,2.55-4.6h0ZM473.13,238.12c2.5-1.68,4.62-2.94,7.12-4.6l.83.82c-2.55,3.34-4.62,6.67-7.56,10.88-.42-2.91-.42-4.6-.85-6.67-.41,0,0,0,.43-.41l.03-.02ZM595.92,449.79c3.78-1.68,7.55-3.33,12.15-5.45-.42,2.51-.42,4.19-.42,5.88-1.27-.43-2.94-.86-4.21-.86-2.52.43-7.13,3.78-9.23,4.2-.4,0,1.69-3.34,1.69-3.77h.01ZM910.3,804.54c.83,4.18,8.8,6.27.83,10.45,1.27.87,2.5,1.27,3.76,2.13,0,.43-.42,1.27-.83,1.68-.85.39-2.52,1.24-3.35.79-.43,0-1.27-1.65-1.27-2.49,0-3.77.43-7.53.84-12.54v-.02Z"/>
</svg>