<svg xmlns="http://www.w3.org/2000/svg" width="1em" height="1em" viewBox="0 0 24 24"><path fill="currentColor" d="M8.279 21.234c-.1 0-.2-.02-.293-.058a10.023 10.023 0 0 1 0-18.35a.734.734 0 1 1 .586 1.347a8.55 8.55 0 0 0 0 15.617a.741.741 0 0 1 .38.976a.722.722 0 0 1-.673.468m7.428-.029a.722.722 0 0 1-.293-1.396a8.55 8.55 0 0 0 0-15.616a.735.735 0 0 1 .585-1.347a10.014 10.014 0 0 1 0 18.35a.78.78 0 0 1-.293.01"/><path fill="currentColor" d="M18.234 10.764c-.026.216-.106.42-.234.596l-6.354 8.54c-.065.081-.14.153-.224.215a.899.899 0 0 1-.352.126h-.146a.974.974 0 0 1-.312 0a.976.976 0 0 1-.46-.429a.365.365 0 0 1 0-.107a.81.81 0 0 1 0-.46l.616-4.704H6.864a1.143 1.143 0 0 1-1.045-.702a.478.478 0 0 1 0-.108a1.269 1.269 0 0 1 0-.605c.038-.17.112-.329.215-.468l6.325-8.56a.79.79 0 0 1 .38-.303a.976.976 0 0 1 .615 0a.976.976 0 0 1 .459.42a.588.588 0 0 1 0 .117a.78.78 0 0 1 0 .45l-.605 4.713h3.904c.214 0 .424.061.605.176c.193.129.343.312.43.527c.075.179.105.373.087.566"/></svg>