<?xml version="1.0" encoding="UTF-8"?>
<svg id="katman_1" data-name="katman 1" xmlns="http://www.w3.org/2000/svg" xmlns:xlink="http://www.w3.org/1999/xlink" viewBox="0 0 381.98 381">
  <defs>
    <style>
      .cls-1 {
        fill: url(#radial-gradient);
        stroke-width: 0px;
      }
    </style>
    <radialGradient id="radial-gradient" cx="-808.42" cy="296.67" fx="-808.42" fy="296.67" r="3.93" gradientTransform="translate(28913.84 78077.42) rotate(90) scale(96.82)" gradientUnits="userSpaceOnUse">
      <stop offset="0" stop-color="#20c6b7"/>
      <stop offset="1" stop-color="#4d9abf"/>
    </radialGradient>
  </defs>
  <path id="Shape" class="cls-1" d="M277.34,132.28h0q-.39,0,0,0c-.79-.39-.79-.79-.79-1.18l7.87-46.81,36.19,36.19-37.77,16.13h-.79c-1.18-1.97-3.15-3.54-4.72-4.33ZM329.66,129.52l38.55,38.55c7.87,7.87,12.2,12.2,13.38,16.52.39.79.39,1.18.39,1.97l-92.45-38.95h0c-.39,0-.79-.39-.79-.79s.39-.39.79-.79h0l40.13-16.52ZM380.8,198.76c-1.97,3.54-5.9,7.47-12.59,14.16l-43.67,43.27-56.26-11.8h-.39c-.39,0-1.18,0-1.18-.79-.39-4.72-2.75-9.05-6.69-11.8-.39-.39,0-.39,0-.79h0l10.62-64.91v-.39c0-.39,0-1.18.79-1.18,4.72-.39,8.65-2.75,11.41-6.69,0,0,0-.39.39-.39h1.18l96.38,41.31h0ZM314.71,266.42l-71.6,71.6,12.2-75.14h0v-.39c0-.39.39-.39.79-.39h0c2.75-1.18,5.11-2.75,7.08-5.11l.79-.79h.39l50.35,10.23h0ZM227.77,352.97l-8.26,7.87-89.3-128.64h0s-.39-.39-.39-.79c0,0,0-.39.39-.39h0c.39-.39.39-.79.79-1.18l.39-.39h0c0-.39.39-.39.39-.79h.79l99.13,20.46q.39,0,.79.39v.39c1.57,5.11,5.11,9.44,10.23,11.8.39,0,0,.39,0,.79v.39c-1.18,7.47-12.2,72.38-14.95,90.09ZM210.86,369.89c-5.9,5.9-9.44,9.05-13.38,10.23-3.93,1.18-8.26,1.18-12.2,0-4.72-1.57-8.65-5.51-16.52-13.38l-89.69-89.3,23.6-36.19.39-.39h.79c5.51,1.57,11.01,1.18,16.52-.79h.79l.39.39,89.3,129.43h0ZM70.42,268.78l-20.46-20.46,40.52-17.31h.39c.39,0,.39.39.79.79.39.79.79,1.18,1.18,1.97h0v.39l-22.42,34.62h0ZM40.52,238.89l-25.96-25.96c-4.33-4.33-7.47-7.47-9.83-10.23l79.07,16.52h.39c.39,0,1.18,0,1.18.79,0,.39-.39.79-1.18.79h-.39l-43.27,18.1ZM0,189.32c0-1.57.39-3.15.79-4.72,1.57-4.72,5.51-8.65,13.38-16.52l33.44-33.04c15.34,22.03,30.68,44.45,46.03,66.48.39.39.39.79.39,1.18-1.57,1.57-2.75,3.54-3.93,5.11,0,.39-.39.39-.39.79h-.39L0,189.32h0ZM56.65,125.98l44.85-44.45c4.33,1.97,19.67,8.26,33.44,14.16,10.23,4.33,19.67,8.26,22.82,9.44.39,0,.39.39.79.39v.79c-1.57,6.69.39,13.38,5.11,18.1.39.39,0,.79-.39,1.18v.39l-45.63,70.02c0,.39-.39.39-.39.39h-.79c-1.97-.39-3.54-.79-5.51-.79-1.57,0-3.54.39-5.11.79h-.39l-.39-.39-48.39-70.02h0ZM110.54,72.09l58.22-57.83c7.87-7.87,12.2-12.2,16.52-13.38,3.93-1.18,8.26-1.18,12.2,0,4.72,1.57,8.65,5.51,16.52,13.38l12.59,12.59-41.31,63.73-.39.39h-.79c-6.69-1.97-13.77-.79-19.28,3.54-.39.39-.79,0-1.18,0-5.11-1.97-46.81-19.67-53.11-22.42h0ZM235.64,35.5l38.16,37.77-9.05,56.65h0v.39c0,.39-.39.39-.39.39-1.97.79-3.93,1.57-5.51,2.75h-.39l-.39.39h-.39l-58.22-24.39h0c-.39,0-.79-.39-.79-.79-.39-3.15-1.57-6.29-3.15-9.05-.39-.39-.39-.79-.39-1.57l40.52-62.55ZM196.3,121.26l54.29,22.82c.39,0,.79.39.79.39v.39c0,.79-.39,1.57-.39,2.75v1.57c0,.39-.39.39-.79.79h0c-8.65,3.54-121.16,51.53-121.16,51.53h-.39c-.39-.39,0-.79.39-1.18v-.39l44.85-68.84h0c.39-.39.39-.79,1.18-.79h.39c1.18,0,1.97.39,2.75.39,6.69,0,12.98-3.15,16.92-9.05l.39-.39c0-.39.39-.39.79,0h0ZM133.75,212.53l122.74-51.93h.39c.79.79,1.18,1.18,1.97,1.57h.39c.39,0,.39.39.39.39v.39l-10.62,64.12v.39c0,.39,0,1.18-.79,1.18-5.51.39-10.62,3.54-13.77,8.26h0c0,.39-.39.39-.39.39h-.79l-97.56-20.06c-.39.39-1.57-4.72-1.97-4.72h0Z"/>
</svg>